{"title":"Captain.America.The.Winter.Soldier.2014.DVDRip.x264.AAC-ViZNU [P","uid":10665799,"size":555353485,"categoryP":"video","categoryS":"movies","magnet":"?xt=urn:btih:625ec65b9e49aa03d8a642a3079f8f327e0bd36d&amp;dn=Captain.America.The.Winter.Soldier.2014.DVDRip.x264.AAC-ViZNU+%5BP&amp;tr=udp%3A%2F%2Ftracker.openbittorrent.com%3A80&amp;tr=udp%3A%2F%2Fopen.demonii.com%3A1337&amp;tr=udp%3A%2F%2Ftracker.coppersurfer.tk%3A6969&amp;tr=udp%3A%2F%2Fexodus.desync.com%3A6969","seeders":3,"leechers":0,"uploader":"ValidusVyto","files":-1,"time":1406792294,"description":"Captain.America.The.Winter.Soldier.2014.DVDRip.x264.AAC-ViZNU\n\n\nGenre: Action | Adventure | Sci-Fi &lt;a href=&quot;\nhttp://www.imdb.com/title/tt1843866/&quot; rel=&quot;nofollow&quot; target=&quot;_NEW&quot;&gt;\nhttp://www.imdb.com/title/tt1843866/&lt;/a&gt;\n\n\nFormat                                   : MPEG-4\nFile size                                : 530 MiB\nDuration                                 : 2h 15mn\nOverall bit rate                         : 544 Kbps\n\nVideo\nFormat                                   : AVC\nDuration                                 : 2h 15mn\nBit rate                                 : 500 Kbps\nWidth                                    : 720 pixels\nHeight                                   : 304 pixels\nDisplay aspect ratio                     : 2.35:1\nFrame rate mode                          : Constant\nFrame rate                               : 25.000 fps\nBit depth                                : 8 bits\nStream size                              : 486 MiB (92%)\nWriting library                          : x264 core 142 r2431 ac76440\n\nAudio\nFormat                                   : AAC\nBit rate                                 : 40.0 Kbps\nChannel(s)                               : 2 channels\nChannel positions                        : Front: L R\nSampling rate                            : 48.0 KHz\nStream size                              : 38.9 MiB (7%)\n\nSubtitle                                 : Yes (English)\n &lt;a href=&quot;\nhttp://www.ultraimg.com/images/wSqzA.png&quot; rel=&quot;nofollow&quot; target=&quot;_NEW&quot;&gt;\nhttp://www.ultraimg.com/images/wSqzA.png&lt;/a&gt; &lt;a href=&quot;\nhttp://www.ultraimg.com/images/7SyY.png&quot; rel=&quot;nofollow&quot; target=&quot;_NEW&quot;&gt;\nhttp://www.ultraimg.com/images/7SyY.png&lt;/a&gt; &lt;a href=&quot;\nhttp://www.ultraimg.com/images/FR8A4.png&quot; rel=&quot;nofollow&quot; target=&quot;_NEW&quot;&gt;\nhttp://www.ultraimg.com/images/FR8A4.png&lt;/a&gt; &lt;a href=&quot;\nhttp://www.ultraimg.com/images/jRPA7.png&quot; rel=&quot;nofollow&quot; target=&quot;_NEW&quot;&gt;\nhttp://www.ultraimg.com/images/jRPA7.png&lt;/a&gt; &lt;a href=&quot;\nhttp://www.ultraimg.com/images/2Lkwt.png&quot; rel=&quot;nofollow&quot; target=&quot;_NEW&quot;&gt;\nhttp://www.ultraimg.com/images/2Lkwt.png&lt;/a&gt; &lt;a href=&quot;\nhttp://www.ultraimg.com/images/zcSut.png&quot; rel=&quot;nofollow&quot; target=&quot;_NEW&quot;&gt;\nhttp://www.ultraimg.com/images/zcSut.png&lt;/a&gt; &lt;a href=&quot;\nhttp://www.ultraimg.com/images/baWFU.png&quot; rel=&quot;nofollow&quot; target=&quot;_NEW&quot;&gt;\nhttp://www.ultraimg.com/images/baWFU.png&lt;/a&gt; &lt;a href=&quot;\nhttp://www.ultraimg.com/images/KEUP7.png&quot; rel=&quot;nofollow&quot; target=&quot;_NEW&quot;&gt;\nhttp://www.ultraimg.com/images/KEUP7.png&lt;/a&gt;\n\n----------------------------------------------------------------------------------------------------\n\n\nRecommend to you to use latest version of VLC player. Install K-Lite Codec Pack or shark007 codecs\nin case of any kind of problem in playback (For non-VLC Media Player users). Alternatively, install\nCore AVC codecs, the fastest decoder that there is coupled with Community Center Codec Pack and play\non Windows Media Player Classic. Check sample to be sure.\n\nEncoder Notes: Looking For Early Access To Anything You Can Provide DVDScr, R5, DVDR, BluRay, Direct\nAudio, Music Releases and Seedboxes. We require dedicated servers, so as to do more \nand fast releases of movies.","torrent":{"xt":"urn:btih:625ec65b9e49aa03d8a642a3079f8f327e0bd36d","amp;dn":"Captain.America.The.Winter.Soldier.2014.DVDRip.x264.AAC-ViZNU+%5BP","amp;tr":["udp%3A%2F%2Ftracker.openbittorrent.com%3A80","udp%3A%2F%2Fopen.demonii.com%3A1337","udp%3A%2F%2Ftracker.coppersurfer.tk%3A6969","udp%3A%2F%2Fexodus.desync.com%3A6969"],"infoHash":"625ec65b9e49aa03d8a642a3079f8f327e0bd36d","infoHashBuffer":{"type":"Buffer","data":[98,94,198,91,158,73,170,3,216,166,66,163,7,159,143,50,126,11,211,109]},"announce":[],"urlList":[]}}